# xmcd
#
# Track frame offsets: 
#        150
#        18841
#        39310
#        57672
#        73787
#        94515
#        111992
#        133038
#        153352
#        178107
#        200779
#        222007
#        242878
#        263436
#        285868
#        317345
#
# Disc length: 4677 seconds
#
# Revision: 0
# Processed by: cddbd v1.5.2PL0 Copyright (c) Steve Scherf et al.
# Submitted via: ExactAudioCopy v0.95b3
#
DISCID=dd124310
DTITLE=Tia - Absolutely [CD1] [7527]
DYEAR=2010
DGENRE=Pop
TTITLE0=Boy Toy (Single 1)
TTITLE1=Baby Talk
TTITLE2=Cupid
TTITLE3=Delirious
TTITLE4=Sugar Baby
TTITLE5=Dance To The Music
TTITLE6=Boy Toy (Single 2)
TTITLE7=Bounce Back
TTITLE8=Ready Or Not
TTITLE9=Infactuation
TTITLE10=Dance Romance
TTITLE11=Sugar Baby (Swing Mix)
TTITLE12=Boy Toy '99
TTITLE13=Boy Toy (Short Version)
TTITLE14=Cupid (Dance Mix)
TTITLE15=Boy Toy (M and M Club Mix)
EXTD=
EXTT0=
EXTT1=
EXTT2=
EXTT3=
EXTT4=
EXTT5=
EXTT6=
EXTT7=
EXTT8=
EXTT9=
EXTT10=
EXTT11=
EXTT12=
EXTT13=
EXTT14=
EXTT15=
PLAYORDER=
